<svg id="visual" viewBox="0 0 960 540" width="960" height="540" xmlns="http://www.w3.org/2000/svg" xmlns:xlink="http://www.w3.org/1999/xlink" version="1.1"><rect x="0" y="0" width="960" height="540" fill="#001220"></rect><path d="M0 375L26.7 375C53.3 375 106.7 375 160 379C213.3 383 266.7 391 320 391.5C373.3 392 426.7 385 480 387.3C533.3 389.7 586.7 401.3 640 407C693.3 412.7 746.7 412.3 800 406C853.3 399.7 906.7 387.3 933.3 381.2L960 375L960 541L933.3 541C906.7 541 853.3 541 800 541C746.7 541 693.3 541 640 541C586.7 541 533.3 541 480 541C426.7 541 373.3 541 320 541C266.7 541 213.3 541 160 541C106.7 541 53.3 541 26.7 541L0 541Z" fill="#90eba9"></path><path d="M0 403L26.7 405.8C53.3 408.7 106.7 414.3 160 418.8C213.3 423.3 266.7 426.7 320 428.3C373.3 430 426.7 430 480 428.2C533.3 426.3 586.7 422.7 640 422.8C693.3 423 746.7 427 800 425.2C853.3 423.3 906.7 415.7 933.3 411.8L960 408L960 541L933.3 541C906.7 541 853.3 541 800 541C746.7 541 693.3 541 640 541C586.7 541 533.3 541 480 541C426.7 541 373.3 541 320 541C266.7 541 213.3 541 160 541C106.7 541 53.3 541 26.7 541L0 541Z" fill="#a2e38b"></path><path d="M0 447L26.7 446.8C53.3 446.7 106.7 446.3 160 447.2C213.3 448 266.7 450 320 447.7C373.3 445.3 426.7 438.7 480 434.8C533.3 431 586.7 430 640 433.2C693.3 436.3 746.7 443.7 800 444.7C853.3 445.7 906.7 440.3 933.3 437.7L960 435L960 541L933.3 541C906.7 541 853.3 541 800 541C746.7 541 693.3 541 640 541C586.7 541 533.3 541 480 541C426.7 541 373.3 541 320 541C266.7 541 213.3 541 160 541C106.7 541 53.3 541 26.7 541L0 541Z" fill="#b8da6e"></path><path d="M0 452L26.7 451.8C53.3 451.7 106.7 451.3 160 453.2C213.3 455 266.7 459 320 459C373.3 459 426.7 455 480 455.3C533.3 455.7 586.7 460.3 640 460.8C693.3 461.3 746.7 457.7 800 456.8C853.3 456 906.7 458 933.3 459L960 460L960 541L933.3 541C906.7 541 853.3 541 800 541C746.7 541 693.3 541 640 541C586.7 541 533.3 541 480 541C426.7 541 373.3 541 320 541C266.7 541 213.3 541 160 541C106.7 541 53.3 541 26.7 541L0 541Z" fill="#cece55"></path><path d="M0 481L26.7 480.3C53.3 479.7 106.7 478.3 160 479.3C213.3 480.3 266.7 483.7 320 483.3C373.3 483 426.7 479 480 479.3C533.3 479.7 586.7 484.3 640 485.7C693.3 487 746.7 485 800 482.7C853.3 480.3 906.7 477.7 933.3 476.3L960 475L960 541L933.3 541C906.7 541 853.3 541 800 541C746.7 541 693.3 541 640 541C586.7 541 533.3 541 480 541C426.7 541 373.3 541 320 541C266.7 541 213.3 541 160 541C106.7 541 53.3 541 26.7 541L0 541Z" fill="#e5c043"></path><path d="M0 506L26.7 504.3C53.3 502.7 106.7 499.3 160 499.2C213.3 499 266.7 502 320 503.5C373.3 505 426.7 505 480 505C533.3 505 586.7 505 640 504.3C693.3 503.7 746.7 502.3 800 500.5C853.3 498.7 906.7 496.3 933.3 495.2L960 494L960 541L933.3 541C906.7 541 853.3 541 800 541C746.7 541 693.3 541 640 541C586.7 541 533.3 541 480 541C426.7 541 373.3 541 320 541C266.7 541 213.3 541 160 541C106.7 541 53.3 541 26.7 541L0 541Z" fill="#fcaf3c"></path></svg>